<mxfile host="drawio-plugin" modified="2021-11-04T19:55:48.208Z" agent="5.0 (X11; Linux x86_64) AppleWebKit/537.36 (KHTML, like Gecko) Chrome/87.0.4280.141 Safari/537.36" version="14.7.4" etag="9pmAp9HOezTJrUZGpxC3" type="embed" pages="2"><diagram id="V0eu5wtLmQw78PfOXEA_" name="candidates"><mxGraphModel dx="1002" dy="152" grid="1" gridSize="10" guides="1" tooltips="1" connect="1" arrows="1" fold="1" page="1" pageScale="1" pageWidth="850" pageHeight="1100" math="0" shadow="0"><root><mxCell id="0"/><mxCell id="1" parent="0"/><mxCell id="2" value="name" style="rounded=0;whiteSpace=wrap;html=1;" vertex="1" parent="1"><mxGeometry x="40" y="40" width="120" height="40" as="geometry"/></mxCell><mxCell id="4" value="job role" style="rounded=0;whiteSpace=wrap;html=1;" vertex="1" parent="1"><mxGeometry x="160" y="40" width="120" height="40" as="geometry"/></mxCell><mxCell id="5" value="skills" style="rounded=0;whiteSpace=wrap;html=1;fillColor=#f5f5f5;strokeColor=#666666;fontColor=#333333;" vertex="1" parent="1"><mxGeometry x="280" y="40" width="120" height="40" as="geometry"/></mxCell><mxCell id="6" value="Alex Vasile" style="rounded=0;whiteSpace=wrap;html=1;" vertex="1" parent="1"><mxGeometry x="40" y="80" width="120" height="40" as="geometry"/></mxCell><mxCell id="7" value="Paul Ene" style="rounded=0;whiteSpace=wrap;html=1;" vertex="1" parent="1"><mxGeometry x="40" y="120" width="120" height="40" as="geometry"/></mxCell><mxCell id="8" value="Java dev" style="rounded=0;whiteSpace=wrap;html=1;" vertex="1" parent="1"><mxGeometry x="160" y="80" width="120" height="40" as="geometry"/></mxCell><mxCell id="9" value="Product owner" style="rounded=0;whiteSpace=wrap;html=1;" vertex="1" parent="1"><mxGeometry x="160" y="120" width="120" height="40" as="geometry"/></mxCell><mxCell id="10" value="0 java" style="rounded=0;whiteSpace=wrap;html=1;fillColor=#f5f5f5;strokeColor=#666666;fontColor=#333333;" vertex="1" parent="1"><mxGeometry x="280" y="80" width="120" height="40" as="geometry"/></mxCell><mxCell id="11" value="2 ownership" style="rounded=0;whiteSpace=wrap;html=1;fillColor=#f5f5f5;strokeColor=#666666;fontColor=#333333;" vertex="1" parent="1"><mxGeometry x="280" y="120" width="120" height="40" as="geometry"/></mxCell></root></mxGraphModel></diagram><diagram id="l9SkJryOubTiSpgLzVA1" name="candidate info"><mxGraphModel dx="1002" dy="152" grid="1" gridSize="10" guides="1" tooltips="1" connect="1" arrows="1" fold="1" page="1" pageScale="1" pageWidth="850" pageHeight="1100" math="0" shadow="0"><root><mxCell id="3TYoUOBX65LuLS0YuvU6-0"/><mxCell id="3TYoUOBX65LuLS0YuvU6-1" parent="3TYoUOBX65LuLS0YuvU6-0"/><mxCell id="6qixWfTXo19Aodc4-A0C-0" value="Candidate name" style="rounded=0;whiteSpace=wrap;html=1;" vertex="1" parent="3TYoUOBX65LuLS0YuvU6-1"><mxGeometry x="40" y="40" width="120" height="40" as="geometry"/></mxCell><mxCell id="6qixWfTXo19Aodc4-A0C-1" value="Description" style="rounded=0;whiteSpace=wrap;html=1;" vertex="1" parent="3TYoUOBX65LuLS0YuvU6-1"><mxGeometry x="40" y="80" width="120" height="40" as="geometry"/></mxCell></root></mxGraphModel></diagram></mxfile>